<svg xmlns="http://www.w3.org/2000/svg" xmlns:vectornator="http://vectornator.io" viewBox="0 0 1000 700" clip-rule="evenodd" stroke-linecap="round" stroke-linejoin="round"><defs><linearGradient y1="0" id="a" x1="96.226" y2="186.175" x2="165.56" gradientUnits="userSpaceOnUse" gradientTransform="translate(75 147.928) scale(2.09998)"><stop stop-color="#e84f4f" offset="0"/><stop stop-color="#db4646" offset=".409"/><stop stop-color="#cb3939" offset=".999"/></linearGradient></defs><g vectornator:layerName="Untitled"><path d="M554.788 381.334c2.763 0 5.043.967 6.977 2.901 1.934 1.934 2.901 4.282 2.901 6.976v34.26h-35.02c-2.763 0-5.042-.967-6.976-2.901-1.934-1.934-2.901-4.282-2.901-6.976v-16.301h36.677v-8.082c0-.483-.138-.829-.483-1.174-.346-.345-.691-.484-1.175-.484h-35.019v-8.219h35.019zm1.658 35.917v-9.739h-28.458v8.082c0 .483.138.829.484 1.174.345.345.691.483 1.174.483h26.8zm79.226-35.917h8.772l-16.577 44.137h-6.7l-14.851-32.809-14.021 32.809-.138-.069.069.069h-6.631l-17.338-44.137h8.704l11.949 29.287 12.709-29.287h9.394l13.469 29.287 11.19-29.287zm46.417 0c2.763 0 5.042.967 6.976 2.901 1.934 1.934 2.901 4.282 2.901 6.976v16.301h-36.677v8.082c0 .483.138.829.483 1.174.346.345.691.483 1.174.483h35.02v8.22h-35.02c-2.763 0-5.042-.967-6.976-2.901-1.934-1.934-2.901-4.282-2.901-6.976v-24.383c0-2.763.967-5.042 2.901-6.976 1.934-1.934 4.283-2.901 6.976-2.901h25.143zm-26.8 17.959h28.457v-8.082c0-.483-.138-.829-.483-1.174s-.691-.484-1.174-.484h-25.143c-.483 0-.828.139-1.174.484-.345.345-.483.691-.483 1.174v8.082zm89.103-8.013v1.658h-8.22v-1.658c0-.483-.138-.829-.483-1.174s-.691-.483-1.174-.483h-25.143c-.483 0-.829.138-1.174.483s-.483.691-.483 1.174v6.424c0 .483.138.829.483 1.174.345.346.691.484 1.174.484h25.143c2.763 0 5.042.967 6.976 2.901 1.934 1.934 2.901 4.282 2.901 6.976v6.424c0 2.763-.967 5.042-2.901 6.976-1.934 1.934-4.283 2.901-6.976 2.901h-25.143c-2.763 0-5.042-.967-6.976-2.901-1.934-1.934-2.901-4.282-2.901-6.976v-1.658h8.22v1.658c0 .483.138.829.483 1.174s.691.484 1.174.484h25.143c.483 0 .829-.139 1.174-.484s.483-.691.483-1.174v-6.424c0-.483-.138-.829-.483-1.174-.345-.346-.691-.484-1.174-.484h-25.143c-2.763 0-5.042-.967-6.976-2.901-1.934-1.934-2.901-4.282-2.901-6.976v-6.424c0-2.763.967-5.042 2.901-6.976 1.934-1.934 4.282-2.901 6.976-2.901h25.143c2.763 0 5.042.967 6.976 2.901 1.934 1.865 2.901 4.213 2.901 6.976zm17.406-9.946h25.143c2.762 0 5.042.967 6.976 2.901 1.934 1.934 2.901 4.282 2.901 6.976v24.383c0 2.763-.967 5.042-2.901 6.976-1.934 1.934-4.283 2.901-6.976 2.901h-25.143c-2.763 0-5.042-.967-6.976-2.901-1.934-1.934-2.901-4.282-2.901-6.976v-24.383c0-2.763.967-5.042 2.901-6.976 1.934-1.934 4.282-2.901 6.976-2.901zm25.143 8.219h-25.143c-.483 0-.829.139-1.174.484s-.484.691-.484 1.174v24.383c0 .483.139.829.484 1.174s.691.483 1.174.483h25.143c.483 0 .828-.138 1.174-.483.345-.345.483-.691.483-1.174v-24.383c0-.483-.138-.829-.483-1.174-.346-.276-.691-.484-1.174-.484zm74.252-8.219c2.763 0 5.043.967 6.977 2.901 1.934 1.934 2.901 4.282 2.901 6.976v34.26h-8.151v-34.26c0-.483-.138-.829-.483-1.174-.346-.345-.76-.484-1.244-.484h-17.406c-.483 0-.829.139-1.174.484s-.484.691-.484 1.174v34.26h-8.219v-34.26c0-.483-.138-.829-.484-1.174-.345-.345-.69-.484-1.174-.484h-17.475c-.484 0-.829.139-1.175.484-.345.345-.483.691-.483 1.174v34.26h-8.22v-44.137h56.294zm52.841 0c2.763 0 5.042.967 6.976 2.901 1.934 1.934 2.901 4.282 2.901 6.976v16.301h-36.677v8.082c0 .483.138.829.483 1.174.346.345.691.483 1.174.483h35.02v8.22h-35.02c-2.763 0-5.042-.967-6.976-2.901-1.934-1.934-2.901-4.282-2.901-6.976v-24.383c0-2.763.967-5.042 2.901-6.976 1.934-1.934 4.283-2.901 6.976-2.901h25.143zm-26.8 17.959h28.457v-8.082c0-.483-.138-.829-.483-1.174s-.691-.484-1.174-.484h-25.143c-.483 0-.828.139-1.174.484-.345.345-.483.691-.483 1.174v8.082z" fill="#494368"/><path d="M923.842 246.276l-103.609-95.044-14.574 15.887L892 246.276H551.68l86.341-79.226-14.575-15.887-103.608 95.113h-.069v62.648c0 28.32 27.283 51.39 60.783 51.39h63.892c33.5 0 60.784-23.07 60.784-51.39v-41.167h33.155v41.167c0 28.32 27.283 51.39 60.783 51.39h63.892c33.5 0 60.784-23.07 60.784-51.39v-62.648zM601.566 510.757a15.501 15.501 0 005.701-5.053 1.904 1.904 0 011.664-1.026c.417-.003.823.134 1.153.389l6.143 4.863a2.51 2.51 0 01.897 1.665c-.024.412-.158.81-.389 1.152a25.732 25.732 0 01-10.114 9.216 31.43 31.43 0 01-14.721 3.329 28.823 28.823 0 01-16.962-4.802 26.895 26.895 0 01-9.919-13.372 46.217 46.217 0 01-2.559-15.874 50.241 50.241 0 011.402-13.57 25.86 25.86 0 019.601-14.464 28.183 28.183 0 0117.409-5.376c15.961 0 25.306 8.747 28.036 26.241.483 3.48.782 6.983.895 10.494a1.81 1.81 0 01-2.047 2.049h-39.687a.68.68 0 00-.576.191.685.685 0 00-.189.577 17.28 17.28 0 00.765 5.633 12.654 12.654 0 005.379 7.166 17.78 17.78 0 009.855 2.561c2.871-.014 5.7-.694 8.263-1.989zm-18.821-37.758a11.887 11.887 0 00-4.294 6.59 18.807 18.807 0 00-1.023 5.376c-.087.519.13.771.639.771h25.734a.682.682 0 00.77-.771 38.57 38.57 0 00-.77-4.605 12.688 12.688 0 00-4.539-7.106 13.517 13.517 0 00-8.514-2.622 12.898 12.898 0 00-8.003 2.367zM638.221 522.664a21.883 21.883 0 01-9.407-6.532 14.482 14.482 0 01-3.329-9.281v-.638a1.824 1.824 0 01.513-1.535 1.812 1.812 0 011.534-.514h10.235c1.366 0 2.049.299 2.049.897v.897c0 2.135 1.173 3.992 3.518 5.57a15.598 15.598 0 008.899 2.368c2.92.128 5.814-.606 8.319-2.113a6.234 6.234 0 002.31-2.228 6.227 6.227 0 00.891-3.084 4.764 4.764 0 00-2.625-4.416 42.288 42.288 0 00-8.512-3.141l-4.864-1.534a71.595 71.595 0 01-11.013-4.098 21.93 21.93 0 01-7.554-5.95 14.839 14.839 0 01-3.067-9.668 17.022 17.022 0 016.978-14.271c4.65-3.54 10.815-5.311 18.495-5.312a34.87 34.87 0 0113.696 2.498 21.495 21.495 0 019.155 6.915 16.46 16.46 0 013.263 10.048 1.338 1.338 0 01-.577 1.085 2.307 2.307 0 01-1.472.45h-9.845c-1.368 0-2.049-.26-2.049-.771v-.768a6.587 6.587 0 00-3.263-5.571 15.533 15.533 0 00-8.898-2.239 15.824 15.824 0 00-8.127 1.856 5.753 5.753 0 00-3.135 5.183 5.065 5.065 0 002.945 4.673 51.453 51.453 0 009.858 3.52l2.945.772a96.28 96.28 0 0111.521 4.094 21.267 21.267 0 017.807 5.889 14.872 14.872 0 013.201 9.855 16.647 16.647 0 01-7.169 14.273c-4.779 3.455-11.137 5.182-19.07 5.183a38.875 38.875 0 01-14.156-2.362zM697.03 520.23a26.229 26.229 0 01-9.984-13.633 57.669 57.669 0 010-30.466 24.846 24.846 0 019.92-13.372 29.601 29.601 0 0117.091-4.925 30.447 30.447 0 0117.408 4.993 23.773 23.773 0 019.855 12.543c.346 1.174.603 2.372.769 3.585v.519c0 .938-.554 1.532-1.662 1.789l-10.625 1.665h-.517a1.746 1.746 0 01-1.792-1.536l-.387-1.662a11.03 11.03 0 00-4.483-6.468 14.12 14.12 0 00-8.574-2.622 13.544 13.544 0 00-8.259 2.496 12.04 12.04 0 00-4.539 6.849 39.918 39.918 0 00-1.279 11.391 45.869 45.869 0 001.152 11.394 13.448 13.448 0 004.609 7.103 13.014 13.014 0 008.321 2.625 14.13 14.13 0 008.385-2.497 11.198 11.198 0 004.54-6.592l.13-.638a2.43 2.43 0 01.829-1.281 1.885 1.885 0 011.602-.518l10.624 1.665c1.11.257 1.665.856 1.665 1.794a18.214 18.214 0 01-.518 3.067 22.811 22.811 0 01-9.855 12.992 31.354 31.354 0 01-17.409 4.802 28.752 28.752 0 01-17.017-5.062zM798.976 448.031a8.987 8.987 0 01-2.687-6.72 8.79 8.79 0 012.687-6.658 9.644 9.644 0 016.914-2.558 9.424 9.424 0 016.851 2.558 8.895 8.895 0 012.622 6.658 9.118 9.118 0 01-2.622 6.72 9.298 9.298 0 01-3.155 2.019 9.307 9.307 0 01-3.696.607 9.493 9.493 0 01-6.914-2.626zm-.51 74.181v-61.317a1.816 1.816 0 012.047-2.046h10.754a1.828 1.828 0 011.343.35 1.813 1.813 0 01.701 1.696v61.317a1.812 1.812 0 01-2.044 2.047h-10.754a1.813 1.813 0 01-2.047-2.047zM882.487 491.749a49.546 49.546 0 01-2.178 15.615 26.463 26.463 0 01-9.088 13.184 25.173 25.173 0 01-15.616 4.737 18.697 18.697 0 01-14.593-6.274c-.173-.259-.368-.368-.579-.319-.211.049-.318.236-.318.573v24.124c0 1.365-.763 1.664-2.048 2.046 0 0-9.569 2.714-10.753 3.015-1.184.302-2.049-.683-2.049-2.044v-85.507a1.818 1.818 0 01.514-1.534 1.817 1.817 0 011.535-.511h10.753a1.81 1.81 0 011.971 1.218 1.8 1.8 0 01.077.827v3.329c0 .343.106.558.318.639.213.081.405-.039.579-.38a17.995 17.995 0 0114.593-6.658 24.873 24.873 0 0115.358 4.795 26.549 26.549 0 019.22 13.126 51.359 51.359 0 012.304 15.999zm-15.359-.259c0-6.144-1.023-11.01-3.067-14.599a11.331 11.331 0 00-10.754-6.144 11.105 11.105 0 00-9.984 6.019c-1.963 3.327-2.942 8.275-2.937 14.844 0 6.656 1.066 11.735 3.2 15.234a10.735 10.735 0 009.6 5.633 11.596 11.596 0 0010.236-5.375c2.475-3.756 3.714-8.963 3.714-15.62l-.008.008zM922.933 470.881H910.52a.677.677 0 00-.768.768v30.21c0 3.329.705 5.719 2.113 7.17 1.408 1.451 3.648 2.176 6.72 2.175h3.327a1.825 1.825 0 011.344.348c.19.143.349.323.471.528.12.206.199.433.233.669.024.166.024.336 0 .504v8.572a1.95 1.95 0 01-.973 1.928 1.96 1.96 0 01-.72.237 2.006 2.006 0 01-.355.009l-6.144.13c-6.743 0-11.778-1.174-15.105-3.521-3.327-2.349-5.034-6.724-5.119-13.127v-35.832a.69.69 0 00-.13-.503.667.667 0 00-.639-.265h-6.657a1.82 1.82 0 01-1.533-.515 1.81 1.81 0 01-.436-.707 1.813 1.813 0 01-.078-.827v-7.938a1.815 1.815 0 012.047-2.046h6.657a.678.678 0 00.769-.768v-11.322c0-1.366.581-1.589 2.047-2.046l10.112-3.017c1.964-.546 2.049.684 2.049 2.046v14.34a.671.671 0 00.127.503.719.719 0 00.196.177.698.698 0 00.445.088h12.416a1.813 1.813 0 012.047 1.548c.021.165.021.333 0 .498v7.933a1.808 1.808 0 01-.35 1.343 1.83 1.83 0 01-.528.471c-.206.12-.433.199-.669.232a1.843 1.843 0 01-.503.007zM558.19 460.776v11.041a1.907 1.907 0 01-1.903 1.905h-19.015c-.413 0-.807.164-1.099.456a1.55 1.55 0 00-.456 1.099v46.935c0 .27-.053.537-.158.787a2.016 2.016 0 01-.448.666 2.035 2.035 0 01-1.457.594H522.9a2.043 2.043 0 01-2.042-2.042v-60.344c0-.801.318-1.57.884-2.137a3.025 3.025 0 012.137-.885h9.779c.101-.001.203.004.304.015h22.308a1.903 1.903 0 011.356.556 1.92 1.92 0 01.564 1.353v.001zM788.28 460.771v11.051a1.918 1.918 0 01-.556 1.347 1.906 1.906 0 01-1.346.558h-19.023a1.554 1.554 0 00-1.555 1.555v46.93a2.044 2.044 0 01-2.048 2.047h-10.75a2.047 2.047 0 01-2.046-2.042v-60.344a3.03 3.03 0 013.026-3.022h9.776c.103-.001.207.004.309.015h22.311a1.899 1.899 0 011.346.557c.177.177.316.386.413.617.095.231.145.479.145.729l-.002.002z" fill="#e6484f"/><path d="M75 277.394c0-53.942 0-80.898 13.734-99.815a72.015 72.015 0 0115.917-15.918c18.899-13.733 45.873-13.733 99.807-13.733h145.219c53.942 0 80.897 0 99.816 13.733a71.854 71.854 0 0115.907 15.918c13.742 18.906 13.742 45.873 13.742 99.815v145.213c0 53.942 0 80.897-13.742 99.816a71.687 71.687 0 01-15.907 15.909c-18.908 13.74-45.874 13.74-99.816 13.74H204.458c-53.934 0-80.898 0-99.807-13.74a71.87 71.87 0 01-15.917-15.909C75 503.514 75 476.549 75 422.607V277.394z" fill="url(#a)"/><path d="M348.866 343.56c26.5 0 47.983-21.484 47.983-47.984 0-26.501-21.483-47.984-47.983-47.984-26.502 0-47.984 21.483-47.984 47.984 0 26.5 21.482 47.984 47.984 47.984z" fill="#fff"/><path d="M183.983 292.915c0-15.232 0-22.852 2.976-28.679a27.16 27.16 0 0111.889-11.905c5.82-2.96 13.439-2.96 28.679-2.96l34.76-3.381 3.333 3.381v176.852c0 12.675-.921 18.375-2.993 23.368a27.217 27.217 0 01-5.899 8.829 27.215 27.215 0 01-8.828 5.896c-4.997 2.073-10.419 2.716-23.092 2.716-12.676 0-19.018 0-24.012-2.073a27.218 27.218 0 01-14.727-14.723c-2.072-4.998-2.072-11.34-2.072-24.013l-.014-133.308z"/><path d="M180.592 289.512c0-15.233 0-22.852 2.976-28.68a27.161 27.161 0 0111.888-11.904c5.82-2.96 13.439-2.96 28.68-2.96h38.092v176.853c0 12.675 0 19.017-2.072 24.011a27.205 27.205 0 01-14.727 14.725c-4.997 2.073-11.339 2.073-24.012 2.073-12.676 0-19.018 0-24.013-2.073a27.209 27.209 0 01-14.726-14.725c-2.073-4.996-2.073-11.34-2.073-24.011l-.013-133.309z" fill="#fff"/></g></svg>